<?xml version="1.0" encoding="us-ascii" standalone="no"?><svg xmlns="http://www.w3.org/2000/svg" xmlns:xlink="http://www.w3.org/1999/xlink" contentStyleType="text/css" height="955px" preserveAspectRatio="none" style="width:1343px;height:955px;background:#FFFFFF;" version="1.1" viewBox="0 0 1343 955" width="1343px" zoomAndPan="magnify"><defs/><g><!--class TrustLevel--><g id="elem_TrustLevel"><rect codeLine="2" fill="#F1F1F1" height="196.9688" id="TrustLevel" rx="2.5" ry="2.5" style="stroke:#181818;stroke-width:0.5;" width="110" x="401.5" y="752"/><ellipse cx="416.5" cy="768" fill="#EB937F" rx="11" ry="11" style="stroke:#181818;stroke-width:1.0;"/><path d="M415.3594,768.7969 L415.3594,771.2969 L419.6875,771.2969 L419.6875,770.375 Q419.6875,769.7656 419.9219,769.5 Q420.1719,769.2344 420.5469,769.2344 Q420.9219,769.2344 421.1563,769.5 Q421.3906,769.7656 421.3906,770.375 L421.3906,773 L413.3906,773 Q412.7656,773 412.5,772.7656 Q412.25,772.5313 412.25,772.1406 Q412.25,771.7656 412.5156,771.5313 Q412.7813,771.2969 413.3906,771.2969 L413.6563,771.2969 L413.6563,764.6406 L413.3906,764.6406 Q412.7656,764.6406 412.5,764.4063 Q412.25,764.1719 412.25,763.7813 Q412.25,763.4063 412.5,763.1719 Q412.7656,762.9375 413.3906,762.9375 L421.0156,762.9375 L421.0156,765.5313 Q421.0156,766.1406 420.7813,766.4063 Q420.5625,766.6563 420.1719,766.6563 Q419.7969,766.6563 419.5625,766.4063 Q419.3281,766.1406 419.3281,765.5313 L419.3281,764.6406 L415.3594,764.6406 L415.3594,767.0938 L416.8438,767.0938 Q416.8438,766.4375 416.9688,766.25 Q417.2344,765.8438 417.7031,765.8438 Q418.0781,765.8438 418.3125,766.1094 Q418.5469,766.3594 418.5469,766.9688 L418.5469,768.9375 Q418.5469,769.4844 418.4219,769.6719 Q418.1563,770.0625 417.7031,770.0625 Q417.2344,770.0625 416.9688,769.6563 Q416.8438,769.4688 416.8438,768.7969 L415.3594,768.7969 Z " fill="#000000"/><text fill="#000000" font-family="sans-serif" font-size="14" lengthAdjust="spacing" textLength="78" x="430.5" y="773.7969">Trust Levels</text><line style="stroke:#181818;stroke-width:0.5;" x1="402.5" x2="510.5" y1="784" y2="784"/><text fill="#000000" font-family="sans-serif" font-size="14" lengthAdjust="spacing" textLength="57" x="407.5" y="803.1074">Unknown</text><line style="stroke:#181818;stroke-width:1.0;" x1="402.5" x2="510.5" y1="810.6211" y2="810.6211"/><text fill="#000000" font-family="sans-serif" font-size="14" lengthAdjust="spacing" textLength="39" x="407.5" y="829.7285">Visitor</text><text fill="#000000" font-family="sans-serif" font-size="14" lengthAdjust="spacing" textLength="55" x="407.5" y="848.3496">NewUser</text><text fill="#000000" font-family="sans-serif" font-size="14" lengthAdjust="spacing" textLength="29" x="407.5" y="866.9707">User</text><text fill="#000000" font-family="sans-serif" font-size="14" lengthAdjust="spacing" textLength="71" x="407.5" y="885.5918">KnownUser</text><text fill="#000000" font-family="sans-serif" font-size="14" lengthAdjust="spacing" textLength="78" x="407.5" y="904.2129">TrustedUser</text><text fill="#000000" font-family="sans-serif" font-size="14" lengthAdjust="spacing" textLength="85" x="407.5" y="922.834">VRChatTeam</text><text fill="#000000" font-family="sans-serif" font-size="14" lengthAdjust="spacing" textLength="58" x="407.5" y="941.4551">Nuisance</text></g><g id="elem_GMN3"><path d="M248.5,802.5 L248.5,898.9551 A0,0 0 0 0 248.5,898.9551 L366.5,898.9551 A0,0 0 0 0 366.5,898.9551 L366.5,854.5 L401.35,850.5 L366.5,846.5 L366.5,812.5 L356.5,802.5 L248.5,802.5 A0,0 0 0 0 248.5,802.5 " fill="#FEFFDD" style="stroke:#181818;stroke-width:0.5;"/><path d="M356.5,802.5 L356.5,812.5 L366.5,812.5 L356.5,802.5 " fill="#FEFFDD" style="stroke:#181818;stroke-width:0.5;"/><text fill="#000000" font-family="sans-serif" font-size="13" lengthAdjust="spacing" textLength="87" x="254.5" y="821.5283">Trust Level is a</text><text fill="#000000" font-family="sans-serif" font-size="13" lengthAdjust="spacing" textLength="91" x="254.5" y="838.8193">measure of how</text><text fill="#000000" font-family="sans-serif" font-size="13" lengthAdjust="spacing" textLength="97" x="254.5" y="856.1104">much the user is</text><text fill="#000000" font-family="sans-serif" font-size="13" lengthAdjust="spacing" textLength="80" x="254.5" y="873.4014">trusted by the</text><text fill="#000000" font-family="sans-serif" font-size="13" lengthAdjust="spacing" textLength="47" x="254.5" y="890.6924">system.</text></g><path d="M546.5,796 L546.5,814.291 L464.5,797.3105 L546.5,822.291 L546.5,840.582 A0,0 0 0 0 546.5,840.582 L708.5,840.582 A0,0 0 0 0 708.5,840.582 L708.5,806 L698.5,796 L546.5,796 A0,0 0 0 0 546.5,796 " fill="#FEFFDD" style="stroke:#181818;stroke-width:0.5;"/><path d="M698.5,796 L698.5,806 L708.5,806 L698.5,796 " fill="#FEFFDD" style="stroke:#181818;stroke-width:0.5;"/><text fill="#000000" font-family="sans-serif" font-size="13" lengthAdjust="spacing" textLength="133" x="552.5" y="815.0283">Unknown Trust Level is</text><text fill="#000000" font-family="sans-serif" font-size="13" lengthAdjust="spacing" textLength="141" x="552.5" y="832.3193">only used for debugging.</text><path d="M546.5,850.582 L546.5,868.873 L446.5,823.9316 L546.5,876.873 L546.5,895.1641 A0,0 0 0 0 546.5,895.1641 L689.5,895.1641 A0,0 0 0 0 689.5,895.1641 L689.5,860.582 L679.5,850.582 L546.5,850.582 A0,0 0 0 0 546.5,850.582 " fill="#FEFFDD" style="stroke:#181818;stroke-width:0.5;"/><path d="M679.5,850.582 L679.5,860.582 L689.5,860.582 L679.5,850.582 " fill="#FEFFDD" style="stroke:#181818;stroke-width:0.5;"/><text fill="#000000" font-family="sans-serif" font-size="13" lengthAdjust="spacing" textLength="122" x="552.5" y="869.6104">The default trust level</text><text fill="#000000" font-family="sans-serif" font-size="13" lengthAdjust="spacing" textLength="88" x="552.5" y="886.9014">given to a user.</text><!--class WorldRegion--><g id="elem_WorldRegion"><rect codeLine="33" fill="#F1F1F1" height="159.7266" id="WorldRegion" rx="2.5" ry="2.5" style="stroke:#181818;stroke-width:0.5;" width="125" x="7" y="532"/><ellipse cx="22" cy="548" fill="#EB937F" rx="11" ry="11" style="stroke:#181818;stroke-width:1.0;"/><path d="M20.8594,548.7969 L20.8594,551.2969 L25.1875,551.2969 L25.1875,550.375 Q25.1875,549.7656 25.4219,549.5 Q25.6719,549.2344 26.0469,549.2344 Q26.4219,549.2344 26.6563,549.5 Q26.8906,549.7656 26.8906,550.375 L26.8906,553 L18.8906,553 Q18.2656,553 18,552.7656 Q17.75,552.5313 17.75,552.1406 Q17.75,551.7656 18.0156,551.5313 Q18.2813,551.2969 18.8906,551.2969 L19.1563,551.2969 L19.1563,544.6406 L18.8906,544.6406 Q18.2656,544.6406 18,544.4063 Q17.75,544.1719 17.75,543.7813 Q17.75,543.4063 18,543.1719 Q18.2656,542.9375 18.8906,542.9375 L26.5156,542.9375 L26.5156,545.5313 Q26.5156,546.1406 26.2813,546.4063 Q26.0625,546.6563 25.6719,546.6563 Q25.2969,546.6563 25.0625,546.4063 Q24.8281,546.1406 24.8281,545.5313 L24.8281,544.6406 L20.8594,544.6406 L20.8594,547.0938 L22.3438,547.0938 Q22.3438,546.4375 22.4688,546.25 Q22.7344,545.8438 23.2031,545.8438 Q23.5781,545.8438 23.8125,546.1094 Q24.0469,546.3594 24.0469,546.9688 L24.0469,548.9375 Q24.0469,549.4844 23.9219,549.6719 Q23.6563,550.0625 23.2031,550.0625 Q22.7344,550.0625 22.4688,549.6563 Q22.3438,549.4688 22.3438,548.7969 L20.8594,548.7969 Z " fill="#000000"/><text fill="#000000" font-family="sans-serif" font-size="14" lengthAdjust="spacing" textLength="93" x="36" y="553.7969">World Regions</text><line style="stroke:#181818;stroke-width:0.5;" x1="8" x2="131" y1="564" y2="564"/><text fill="#000000" font-family="sans-serif" font-size="14" lengthAdjust="spacing" textLength="57" x="13" y="583.1074">Unknown</text><line style="stroke:#181818;stroke-width:1.0;" x1="8" x2="131" y1="590.6211" y2="590.6211"/><text fill="#000000" font-family="sans-serif" font-size="14" lengthAdjust="spacing" textLength="50" x="13" y="609.7285">USWest</text><text fill="#000000" font-family="sans-serif" font-size="14" lengthAdjust="spacing" textLength="18" x="13" y="628.3496">US</text><text fill="#000000" font-family="sans-serif" font-size="14" lengthAdjust="spacing" textLength="46" x="13" y="646.9707">USEast</text><text fill="#000000" font-family="sans-serif" font-size="14" lengthAdjust="spacing" textLength="46" x="13" y="665.5918">Europe</text><text fill="#000000" font-family="sans-serif" font-size="14" lengthAdjust="spacing" textLength="38" x="13" y="684.2129">Japan</text></g><g id="elem_GMN9"><path d="M7.5,811 L7.5,890.1641 A0,0 0 0 0 7.5,890.1641 L131.5,890.1641 A0,0 0 0 0 131.5,890.1641 L131.5,821 L121.5,811 L73.5,811 L69.5,692.08 L65.5,811 L7.5,811 A0,0 0 0 0 7.5,811 " fill="#FEFFDD" style="stroke:#181818;stroke-width:0.5;"/><path d="M121.5,811 L121.5,821 L131.5,821 L121.5,811 " fill="#FEFFDD" style="stroke:#181818;stroke-width:0.5;"/><text fill="#000000" font-family="sans-serif" font-size="13" lengthAdjust="spacing" textLength="103" x="13.5" y="830.0283">World Region is a</text><text fill="#000000" font-family="sans-serif" font-size="13" lengthAdjust="spacing" textLength="95" x="13.5" y="847.3193">region where the</text><text fill="#000000" font-family="sans-serif" font-size="13" lengthAdjust="spacing" textLength="83" x="13.5" y="864.6104">world instance</text><text fill="#000000" font-family="sans-serif" font-size="13" lengthAdjust="spacing" textLength="57" x="13.5" y="881.9014">is hosted.</text></g><path d="M167.5,584.5 L167.5,602.791 L70,577.3105 L167.5,610.791 L167.5,629.082 A0,0 0 0 0 167.5,629.082 L337.5,629.082 A0,0 0 0 0 337.5,629.082 L337.5,594.5 L327.5,584.5 L167.5,584.5 A0,0 0 0 0 167.5,584.5 " fill="#FEFFDD" style="stroke:#181818;stroke-width:0.5;"/><path d="M327.5,584.5 L327.5,594.5 L337.5,594.5 L327.5,584.5 " fill="#FEFFDD" style="stroke:#181818;stroke-width:0.5;"/><text fill="#000000" font-family="sans-serif" font-size="13" lengthAdjust="spacing" textLength="149" x="173.5" y="603.5283">Unknown World Region is</text><text fill="#000000" font-family="sans-serif" font-size="13" lengthAdjust="spacing" textLength="141" x="173.5" y="620.8193">only used for debugging.</text><!--class JoinLeaveEvent--><g id="elem_JoinLeaveEvent"><rect codeLine="56" fill="#F1F1F1" height="103.8633" id="JoinLeaveEvent" rx="2.5" ry="2.5" style="stroke:#181818;stroke-width:0.5;" width="147" x="1189" y="308.5"/><ellipse cx="1204" cy="324.5" fill="#EB937F" rx="11" ry="11" style="stroke:#181818;stroke-width:1.0;"/><path d="M1202.8594,325.2969 L1202.8594,327.7969 L1207.1875,327.7969 L1207.1875,326.875 Q1207.1875,326.2656 1207.4219,326 Q1207.6719,325.7344 1208.0469,325.7344 Q1208.4219,325.7344 1208.6563,326 Q1208.8906,326.2656 1208.8906,326.875 L1208.8906,329.5 L1200.8906,329.5 Q1200.2656,329.5 1200,329.2656 Q1199.75,329.0313 1199.75,328.6406 Q1199.75,328.2656 1200.0156,328.0313 Q1200.2813,327.7969 1200.8906,327.7969 L1201.1563,327.7969 L1201.1563,321.1406 L1200.8906,321.1406 Q1200.2656,321.1406 1200,320.9063 Q1199.75,320.6719 1199.75,320.2813 Q1199.75,319.9063 1200,319.6719 Q1200.2656,319.4375 1200.8906,319.4375 L1208.5156,319.4375 L1208.5156,322.0313 Q1208.5156,322.6406 1208.2813,322.9063 Q1208.0625,323.1563 1207.6719,323.1563 Q1207.2969,323.1563 1207.0625,322.9063 Q1206.8281,322.6406 1206.8281,322.0313 L1206.8281,321.1406 L1202.8594,321.1406 L1202.8594,323.5938 L1204.3438,323.5938 Q1204.3438,322.9375 1204.4688,322.75 Q1204.7344,322.3438 1205.2031,322.3438 Q1205.5781,322.3438 1205.8125,322.6094 Q1206.0469,322.8594 1206.0469,323.4688 L1206.0469,325.4375 Q1206.0469,325.9844 1205.9219,326.1719 Q1205.6563,326.5625 1205.2031,326.5625 Q1204.7344,326.5625 1204.4688,326.1563 Q1204.3438,325.9688 1204.3438,325.2969 L1202.8594,325.2969 Z " fill="#000000"/><text fill="#000000" font-family="sans-serif" font-size="14" lengthAdjust="spacing" textLength="115" x="1218" y="330.2969">Join Leave Events</text><line style="stroke:#181818;stroke-width:0.5;" x1="1190" x2="1335" y1="340.5" y2="340.5"/><text fill="#000000" font-family="sans-serif" font-size="14" lengthAdjust="spacing" textLength="57" x="1195" y="359.6074">Unknown</text><line style="stroke:#181818;stroke-width:1.0;" x1="1190" x2="1335" y1="367.1211" y2="367.1211"/><text fill="#000000" font-family="sans-serif" font-size="14" lengthAdjust="spacing" textLength="25" x="1195" y="386.2285">Join</text><text fill="#000000" font-family="sans-serif" font-size="14" lengthAdjust="spacing" textLength="39" x="1195" y="404.8496">Leave</text></g><g id="elem_GMN15"><path d="M1191.5,39 L1191.5,152.7461 A0,0 0 0 0 1191.5,152.7461 L1258.5,152.7461 L1262.5,308.18 L1266.5,152.7461 L1333.5,152.7461 A0,0 0 0 0 1333.5,152.7461 L1333.5,49 L1323.5,39 L1191.5,39 A0,0 0 0 0 1191.5,39 " fill="#FEFFDD" style="stroke:#181818;stroke-width:0.5;"/><path d="M1323.5,39 L1323.5,49 L1333.5,49 L1323.5,39 " fill="#FEFFDD" style="stroke:#181818;stroke-width:0.5;"/><text fill="#000000" font-family="sans-serif" font-size="13" lengthAdjust="spacing" textLength="121" x="1197.5" y="58.0283">Join Leave Event is a</text><text fill="#000000" font-family="sans-serif" font-size="13" lengthAdjust="spacing" textLength="99" x="1197.5" y="75.3193">type of event that</text><text fill="#000000" font-family="sans-serif" font-size="13" lengthAdjust="spacing" textLength="112" x="1197.5" y="92.6104">happened when the</text><text fill="#000000" font-family="sans-serif" font-size="13" lengthAdjust="spacing" textLength="90" x="1197.5" y="109.9014">Player joined or</text><text fill="#000000" font-family="sans-serif" font-size="13" lengthAdjust="spacing" textLength="73" x="1197.5" y="127.1924">left the world</text><text fill="#000000" font-family="sans-serif" font-size="13" lengthAdjust="spacing" textLength="53" x="1197.5" y="144.4834">instance.</text></g><path d="M965.5,333 L965.5,377.582 A0,0 0 0 0 965.5,377.582 L1153.5,377.582 A0,0 0 0 0 1153.5,377.582 L1153.5,359.291 L1193,353.8105 L1153.5,351.291 L1153.5,343 L1143.5,333 L965.5,333 A0,0 0 0 0 965.5,333 " fill="#FEFFDD" style="stroke:#181818;stroke-width:0.5;"/><path d="M1143.5,333 L1143.5,343 L1153.5,343 L1143.5,333 " fill="#FEFFDD" style="stroke:#181818;stroke-width:0.5;"/><text fill="#000000" font-family="sans-serif" font-size="13" lengthAdjust="spacing" textLength="167" x="971.5" y="352.0283">Unknown Join Leave Event is</text><text fill="#000000" font-family="sans-serif" font-size="13" lengthAdjust="spacing" textLength="141" x="971.5" y="369.3193">only used for debugging.</text><!--class Player--><g id="elem_Player"><rect codeLine="78" fill="#F1F1F1" height="103.8633" id="Player" rx="2.5" ry="2.5" style="stroke:#181818;stroke-width:0.5;" width="152" x="380.5" y="560.5"/><ellipse cx="428.75" cy="576.5" fill="#ADD1B2" rx="11" ry="11" style="stroke:#181818;stroke-width:1.0;"/><path d="M427.6094,577.2969 L427.6094,579.7969 L431.9375,579.7969 L431.9375,578.875 Q431.9375,578.2656 432.1719,578 Q432.4219,577.7344 432.7969,577.7344 Q433.1719,577.7344 433.4063,578 Q433.6406,578.2656 433.6406,578.875 L433.6406,581.5 L425.6406,581.5 Q425.0156,581.5 424.75,581.2656 Q424.5,581.0313 424.5,580.6406 Q424.5,580.2656 424.7656,580.0313 Q425.0313,579.7969 425.6406,579.7969 L425.9063,579.7969 L425.9063,573.1406 L425.6406,573.1406 Q425.0156,573.1406 424.75,572.9063 Q424.5,572.6719 424.5,572.2813 Q424.5,571.9063 424.75,571.6719 Q425.0156,571.4375 425.6406,571.4375 L433.2656,571.4375 L433.2656,574.0313 Q433.2656,574.6406 433.0313,574.9063 Q432.8125,575.1563 432.4219,575.1563 Q432.0469,575.1563 431.8125,574.9063 Q431.5781,574.6406 431.5781,574.0313 L431.5781,573.1406 L427.6094,573.1406 L427.6094,575.5938 L429.0938,575.5938 Q429.0938,574.9375 429.2188,574.75 Q429.4844,574.3438 429.9531,574.3438 Q430.3281,574.3438 430.5625,574.6094 Q430.7969,574.8594 430.7969,575.4688 L430.7969,577.4375 Q430.7969,577.9844 430.6719,578.1719 Q430.4063,578.5625 429.9531,578.5625 Q429.4844,578.5625 429.2188,578.1563 Q429.0938,577.9688 429.0938,577.2969 L427.6094,577.2969 Z " fill="#000000"/><text fill="#000000" font-family="sans-serif" font-size="14" lengthAdjust="spacing" textLength="47" x="449.25" y="582.2969">Players</text><line style="stroke:#181818;stroke-width:0.5;" x1="381.5" x2="531.5" y1="592.5" y2="592.5"/><ellipse cx="391.5" cy="607.3105" fill="#000000" rx="3" ry="3" style="stroke:#000000;stroke-width:1.0;"/><text fill="#000000" font-family="sans-serif" font-size="14" lengthAdjust="spacing" textLength="103" x="400.5" y="611.6074">player_id: String</text><line style="stroke:#181818;stroke-width:1.0;" x1="381.5" x2="531.5" y1="619.1211" y2="619.1211"/><text fill="#000000" font-family="sans-serif" font-size="14" lengthAdjust="spacing" textLength="132" x="386.5" y="638.2285">display_name: String</text><text fill="#000000" font-family="sans-serif" font-size="14" lengthAdjust="spacing" textLength="140" x="386.5" y="656.8496">trust_level: TrustLevel</text></g><!--class WorldInstance--><g id="elem_WorldInstance"><rect codeLine="88" fill="#F1F1F1" height="215.5898" id="WorldInstance" rx="2.5" ry="2.5" style="stroke:#181818;stroke-width:0.5;" width="192" x="237.5" y="253"/><ellipse cx="279.05" cy="269" fill="#ADD1B2" rx="11" ry="11" style="stroke:#181818;stroke-width:1.0;"/><path d="M277.9094,269.7969 L277.9094,272.2969 L282.2375,272.2969 L282.2375,271.375 Q282.2375,270.7656 282.4719,270.5 Q282.7219,270.2344 283.0969,270.2344 Q283.4719,270.2344 283.7063,270.5 Q283.9406,270.7656 283.9406,271.375 L283.9406,274 L275.9406,274 Q275.3156,274 275.05,273.7656 Q274.8,273.5313 274.8,273.1406 Q274.8,272.7656 275.0656,272.5313 Q275.3313,272.2969 275.9406,272.2969 L276.2063,272.2969 L276.2063,265.6406 L275.9406,265.6406 Q275.3156,265.6406 275.05,265.4063 Q274.8,265.1719 274.8,264.7813 Q274.8,264.4063 275.05,264.1719 Q275.3156,263.9375 275.9406,263.9375 L283.5656,263.9375 L283.5656,266.5313 Q283.5656,267.1406 283.3313,267.4063 Q283.1125,267.6563 282.7219,267.6563 Q282.3469,267.6563 282.1125,267.4063 Q281.8781,267.1406 281.8781,266.5313 L281.8781,265.6406 L277.9094,265.6406 L277.9094,268.0938 L279.3938,268.0938 Q279.3938,267.4375 279.5188,267.25 Q279.7844,266.8438 280.2531,266.8438 Q280.6281,266.8438 280.8625,267.1094 Q281.0969,267.3594 281.0969,267.9688 L281.0969,269.9375 Q281.0969,270.4844 280.9719,270.6719 Q280.7063,271.0625 280.2531,271.0625 Q279.7844,271.0625 279.5188,270.6563 Q279.3938,270.4688 279.3938,269.7969 L277.9094,269.7969 Z " fill="#000000"/><text fill="#000000" font-family="sans-serif" font-size="14" lengthAdjust="spacing" textLength="101" x="298.95" y="274.7969">World Instances</text><line style="stroke:#181818;stroke-width:0.5;" x1="238.5" x2="428.5" y1="285" y2="285"/><ellipse cx="248.5" cy="299.8105" fill="#000000" rx="3" ry="3" style="stroke:#000000;stroke-width:1.0;"/><text fill="#000000" font-family="sans-serif" font-size="14" lengthAdjust="spacing" textLength="97" x="257.5" y="304.1074">world_id: String</text><ellipse cx="248.5" cy="318.4316" fill="#000000" rx="3" ry="3" style="stroke:#000000;stroke-width:1.0;"/><text fill="#000000" font-family="sans-serif" font-size="14" lengthAdjust="spacing" textLength="117" x="257.5" y="322.7285">instance_id: String</text><line style="stroke:#181818;stroke-width:1.0;" x1="238.5" x2="428.5" y1="330.2422" y2="330.2422"/><text fill="#000000" font-family="sans-serif" font-size="14" lengthAdjust="spacing" textLength="84" x="243.5" y="349.3496">nonce: String</text><text fill="#000000" font-family="sans-serif" font-size="14" lengthAdjust="spacing" textLength="91" x="243.5" y="367.9707">hidden: Player</text><text fill="#000000" font-family="sans-serif" font-size="14" lengthAdjust="spacing" textLength="91" x="243.5" y="386.5918">private: Player</text><text fill="#000000" font-family="sans-serif" font-size="14" lengthAdjust="spacing" textLength="180" x="243.5" y="405.2129">can_request_invite: Boolean</text><text fill="#000000" font-family="sans-serif" font-size="14" lengthAdjust="spacing" textLength="130" x="243.5" y="423.834">region: WorldRegion</text><text fill="#000000" font-family="sans-serif" font-size="14" lengthAdjust="spacing" textLength="91" x="243.5" y="442.4551">friends: Player</text><text fill="#000000" font-family="sans-serif" font-size="14" lengthAdjust="spacing" textLength="82" x="243.5" y="461.0762">group: String</text></g><!--class GamelogJoinLeave--><g id="elem_GamelogJoinLeave"><rect codeLine="107" fill="#F1F1F1" height="178.3477" id="GamelogJoinLeave" rx="2.5" ry="2.5" style="stroke:#181818;stroke-width:0.5;" width="213" x="644" y="7"/><ellipse cx="675.2" cy="23" fill="#ADD1B2" rx="11" ry="11" style="stroke:#181818;stroke-width:1.0;"/><path d="M674.0594,23.7969 L674.0594,26.2969 L678.3875,26.2969 L678.3875,25.375 Q678.3875,24.7656 678.6219,24.5 Q678.8719,24.2344 679.2469,24.2344 Q679.6219,24.2344 679.8563,24.5 Q680.0906,24.7656 680.0906,25.375 L680.0906,28 L672.0906,28 Q671.4656,28 671.2,27.7656 Q670.95,27.5313 670.95,27.1406 Q670.95,26.7656 671.2156,26.5313 Q671.4813,26.2969 672.0906,26.2969 L672.3563,26.2969 L672.3563,19.6406 L672.0906,19.6406 Q671.4656,19.6406 671.2,19.4063 Q670.95,19.1719 670.95,18.7813 Q670.95,18.4063 671.2,18.1719 Q671.4656,17.9375 672.0906,17.9375 L679.7156,17.9375 L679.7156,20.5313 Q679.7156,21.1406 679.4813,21.4063 Q679.2625,21.6563 678.8719,21.6563 Q678.4969,21.6563 678.2625,21.4063 Q678.0281,21.1406 678.0281,20.5313 L678.0281,19.6406 L674.0594,19.6406 L674.0594,22.0938 L675.5438,22.0938 Q675.5438,21.4375 675.6688,21.25 Q675.9344,20.8438 676.4031,20.8438 Q676.7781,20.8438 677.0125,21.1094 Q677.2469,21.3594 677.2469,21.9688 L677.2469,23.9375 Q677.2469,24.4844 677.1219,24.6719 Q676.8563,25.0625 676.4031,25.0625 Q675.9344,25.0625 675.6688,24.6563 Q675.5438,24.4688 675.5438,23.7969 L674.0594,23.7969 Z " fill="#000000"/><text fill="#000000" font-family="sans-serif" font-size="14" lengthAdjust="spacing" textLength="145" x="692.8" y="28.7969">Game Join Leave Logs</text><line style="stroke:#181818;stroke-width:0.5;" x1="645" x2="856" y1="39" y2="39"/><ellipse cx="655" cy="53.8105" fill="#000000" rx="3" ry="3" style="stroke:#000000;stroke-width:1.0;"/><text fill="#000000" font-family="sans-serif" font-size="14" lengthAdjust="spacing" textLength="63" x="664" y="58.1074">id: Integer</text><line style="stroke:#181818;stroke-width:1.0;" x1="645" x2="856" y1="65.6211" y2="65.6211"/><ellipse cx="655" cy="80.4316" fill="#000000" rx="3" ry="3" style="stroke:#000000;stroke-width:1.0;"/><text fill="#000000" font-family="sans-serif" font-size="14" lengthAdjust="spacing" textLength="137" x="664" y="84.7285">created_at: DateTime</text><text fill="#000000" font-family="sans-serif" font-size="14" lengthAdjust="spacing" textLength="147" x="664" y="103.3496">instance_owner: Player</text><text fill="#000000" font-family="sans-serif" font-size="14" lengthAdjust="spacing" textLength="187" x="664" y="121.9707">instance_owner_name: String</text><text fill="#000000" font-family="sans-serif" font-size="14" lengthAdjust="spacing" textLength="147" x="664" y="140.5918">location: WorldInstance</text><ellipse cx="655" cy="154.916" fill="#000000" rx="3" ry="3" style="stroke:#000000;stroke-width:1.0;"/><text fill="#000000" font-family="sans-serif" font-size="14" lengthAdjust="spacing" textLength="143" x="664" y="159.2129">event: JoinLeaveEvent</text><text fill="#000000" font-family="sans-serif" font-size="14" lengthAdjust="spacing" textLength="78" x="664" y="177.834">time: Integer</text></g><path d="M900,60 L900,86.9365 L742,172.0371 L900,94.9365 L900,121.873 A0,0 0 0 0 900,121.873 L1031,121.873 A0,0 0 0 0 1031,121.873 L1031,70 L1021,60 L900,60 A0,0 0 0 0 900,60 " fill="#FEFFDD" style="stroke:#181818;stroke-width:0.5;"/><path d="M1021,60 L1021,70 L1031,70 L1021,60 " fill="#FEFFDD" style="stroke:#181818;stroke-width:0.5;"/><text fill="#000000" font-family="sans-serif" font-size="13" lengthAdjust="spacing" textLength="110" x="906" y="79.0283">Amount of time the</text><text fill="#000000" font-family="sans-serif" font-size="13" lengthAdjust="spacing" textLength="109" x="906" y="96.3193">Player spent in the</text><text fill="#000000" font-family="sans-serif" font-size="13" lengthAdjust="spacing" textLength="91" x="906" y="113.6104">World Instance.</text><!--class GamelogLocation--><g id="elem_GamelogLocation"><rect codeLine="129" fill="#F1F1F1" height="159.7266" id="GamelogLocation" rx="2.5" ry="2.5" style="stroke:#181818;stroke-width:0.5;" width="218" x="208.5" y="16.5"/><ellipse cx="248.25" cy="32.5" fill="#ADD1B2" rx="11" ry="11" style="stroke:#181818;stroke-width:1.0;"/><path d="M247.1094,33.2969 L247.1094,35.7969 L251.4375,35.7969 L251.4375,34.875 Q251.4375,34.2656 251.6719,34 Q251.9219,33.7344 252.2969,33.7344 Q252.6719,33.7344 252.9063,34 Q253.1406,34.2656 253.1406,34.875 L253.1406,37.5 L245.1406,37.5 Q244.5156,37.5 244.25,37.2656 Q244,37.0313 244,36.6406 Q244,36.2656 244.2656,36.0313 Q244.5313,35.7969 245.1406,35.7969 L245.4063,35.7969 L245.4063,29.1406 L245.1406,29.1406 Q244.5156,29.1406 244.25,28.9063 Q244,28.6719 244,28.2813 Q244,27.9063 244.25,27.6719 Q244.5156,27.4375 245.1406,27.4375 L252.7656,27.4375 L252.7656,30.0313 Q252.7656,30.6406 252.5313,30.9063 Q252.3125,31.1563 251.9219,31.1563 Q251.5469,31.1563 251.3125,30.9063 Q251.0781,30.6406 251.0781,30.0313 L251.0781,29.1406 L247.1094,29.1406 L247.1094,31.5938 L248.5938,31.5938 Q248.5938,30.9375 248.7188,30.75 Q248.9844,30.3438 249.4531,30.3438 Q249.8281,30.3438 250.0625,30.6094 Q250.2969,30.8594 250.2969,31.4688 L250.2969,33.4375 Q250.2969,33.9844 250.1719,34.1719 Q249.9063,34.5625 249.4531,34.5625 Q248.9844,34.5625 248.7188,34.1563 Q248.5938,33.9688 248.5938,33.2969 L247.1094,33.2969 Z " fill="#000000"/><text fill="#000000" font-family="sans-serif" font-size="14" lengthAdjust="spacing" textLength="131" x="267.75" y="38.2969">Game Location Logs</text><line style="stroke:#181818;stroke-width:0.5;" x1="209.5" x2="425.5" y1="48.5" y2="48.5"/><ellipse cx="219.5" cy="63.3105" fill="#000000" rx="3" ry="3" style="stroke:#000000;stroke-width:1.0;"/><text fill="#000000" font-family="sans-serif" font-size="14" lengthAdjust="spacing" textLength="11" x="228.5" y="67.6074">id</text><line style="stroke:#181818;stroke-width:1.0;" x1="209.5" x2="425.5" y1="75.1211" y2="75.1211"/><ellipse cx="219.5" cy="89.9316" fill="#000000" rx="3" ry="3" style="stroke:#000000;stroke-width:1.0;"/><text fill="#000000" font-family="sans-serif" font-size="14" lengthAdjust="spacing" textLength="137" x="228.5" y="94.2285">created_at: DateTime</text><ellipse cx="219.5" cy="108.5527" fill="#000000" rx="3" ry="3" style="stroke:#000000;stroke-width:1.0;"/><text fill="#000000" font-family="sans-serif" font-size="14" lengthAdjust="spacing" textLength="121" x="228.5" y="112.8496">world_name: String</text><ellipse cx="219.5" cy="127.1738" fill="#000000" rx="3" ry="3" style="stroke:#000000;stroke-width:1.0;"/><text fill="#000000" font-family="sans-serif" font-size="14" lengthAdjust="spacing" textLength="192" x="228.5" y="131.4707">world_instance: WorldInstance</text><text fill="#000000" font-family="sans-serif" font-size="14" lengthAdjust="spacing" textLength="78" x="228.5" y="150.0918">time: Integer</text><text fill="#000000" font-family="sans-serif" font-size="14" lengthAdjust="spacing" textLength="125" x="228.5" y="168.7129">group_name: String</text></g><path d="M470,60 L470,86.9365 L306.5,144.2949 L470,94.9365 L470,121.873 A0,0 0 0 0 470,121.873 L601,121.873 A0,0 0 0 0 601,121.873 L601,70 L591,60 L470,60 A0,0 0 0 0 470,60 " fill="#FEFFDD" style="stroke:#181818;stroke-width:0.5;"/><path d="M591,60 L591,70 L601,70 L591,60 " fill="#FEFFDD" style="stroke:#181818;stroke-width:0.5;"/><text fill="#000000" font-family="sans-serif" font-size="13" lengthAdjust="spacing" textLength="110" x="476" y="79.0283">Amount of time the</text><text fill="#000000" font-family="sans-serif" font-size="13" lengthAdjust="spacing" textLength="109" x="476" y="96.3193">Player spent in the</text><text fill="#000000" font-family="sans-serif" font-size="13" lengthAdjust="spacing" textLength="91" x="476" y="113.6104">World Instance.</text><!--class UserFriendLogCurrent--><g id="elem_UserFriendLogCurrent"><rect codeLine="148" fill="#F1F1F1" height="66.6211" id="UserFriendLogCurrent" rx="2.5" ry="2.5" style="stroke:#181818;stroke-width:0.5;" width="193" x="481" y="327.5"/><ellipse cx="496" cy="343.5" fill="#ADD1B2" rx="11" ry="11" style="stroke:#181818;stroke-width:1.0;"/><path d="M494.8594,344.2969 L494.8594,346.7969 L499.1875,346.7969 L499.1875,345.875 Q499.1875,345.2656 499.4219,345 Q499.6719,344.7344 500.0469,344.7344 Q500.4219,344.7344 500.6563,345 Q500.8906,345.2656 500.8906,345.875 L500.8906,348.5 L492.8906,348.5 Q492.2656,348.5 492,348.2656 Q491.75,348.0313 491.75,347.6406 Q491.75,347.2656 492.0156,347.0313 Q492.2813,346.7969 492.8906,346.7969 L493.1563,346.7969 L493.1563,340.1406 L492.8906,340.1406 Q492.2656,340.1406 492,339.9063 Q491.75,339.6719 491.75,339.2813 Q491.75,338.9063 492,338.6719 Q492.2656,338.4375 492.8906,338.4375 L500.5156,338.4375 L500.5156,341.0313 Q500.5156,341.6406 500.2813,341.9063 Q500.0625,342.1563 499.6719,342.1563 Q499.2969,342.1563 499.0625,341.9063 Q498.8281,341.6406 498.8281,341.0313 L498.8281,340.1406 L494.8594,340.1406 L494.8594,342.5938 L496.3438,342.5938 Q496.3438,341.9375 496.4688,341.75 Q496.7344,341.3438 497.2031,341.3438 Q497.5781,341.3438 497.8125,341.6094 Q498.0469,341.8594 498.0469,342.4688 L498.0469,344.4375 Q498.0469,344.9844 497.9219,345.1719 Q497.6563,345.5625 497.2031,345.5625 Q496.7344,345.5625 496.4688,345.1563 Q496.3438,344.9688 496.3438,344.2969 L494.8594,344.2969 Z " fill="#000000"/><text fill="#000000" font-family="sans-serif" font-size="14" lengthAdjust="spacing" textLength="161" x="510" y="349.2969">User Current Friend Logs</text><line style="stroke:#181818;stroke-width:0.5;" x1="482" x2="673" y1="359.5" y2="359.5"/><ellipse cx="492" cy="374.3105" fill="#000000" rx="3" ry="3" style="stroke:#000000;stroke-width:1.0;"/><text fill="#000000" font-family="sans-serif" font-size="14" lengthAdjust="spacing" textLength="95" x="501" y="378.6074">user_id: Player</text><line style="stroke:#181818;stroke-width:1.0;" x1="482" x2="673" y1="386.1211" y2="386.1211"/></g><path d="M789,316 L789,351.582 L596,372.8105 L789,359.582 L789,395.1641 A0,0 0 0 0 789,395.1641 L930,395.1641 A0,0 0 0 0 930,395.1641 L930,326 L920,316 L789,316 A0,0 0 0 0 789,316 " fill="#FEFFDD" style="stroke:#181818;stroke-width:0.5;"/><path d="M920,316 L920,326 L930,326 L920,316 " fill="#FEFFDD" style="stroke:#181818;stroke-width:0.5;"/><text fill="#000000" font-family="sans-serif" font-size="13" lengthAdjust="spacing" textLength="120" x="795" y="335.0283">User ID of the Player</text><text fill="#000000" font-family="sans-serif" font-size="13" lengthAdjust="spacing" textLength="91" x="795" y="352.3193">who is currently</text><text fill="#000000" font-family="sans-serif" font-size="13" lengthAdjust="spacing" textLength="87" x="795" y="369.6104">friends with the</text><text fill="#000000" font-family="sans-serif" font-size="13" lengthAdjust="spacing" textLength="31" x="795" y="386.9014">User.</text><!--link Player to TrustLevel--><g id="link_Player_TrustLevel"><path codeLine="85" d="M533.5,651 C588.53,651 553.52,718.13 514.58,774.31 " fill="none" id="Player-to-TrustLevel" style="stroke:#181818;stroke-width:1.0;"/><polygon fill="#181818" points="511.53,778.68,519.9574,773.583,514.3887,774.5778,513.3939,769.0091,511.53,778.68" style="stroke:#181818;stroke-width:1.0;"/></g><!--link WorldInstance to WorldRegion--><g id="link_WorldInstance_WorldRegion"><path codeLine="101" d="M236.5,417.5 C174.69,417.5 130.7,474.79 103.44,527.02 " fill="none" id="WorldInstance-to-WorldRegion" style="stroke:#181818;stroke-width:1.0;"/><polygon fill="#181818" points="101.01,531.74,108.6761,525.5569,103.2916,527.2909,101.5576,521.9064,101.01,531.74" style="stroke:#181818;stroke-width:1.0;"/></g><!--link WorldInstance to Player--><g id="link_WorldInstance_Player"><path codeLine="102" d="M430.5,361.5 C449.48,361.5 454.67,477.18 456.04,551.01 " fill="none" id="WorldInstance-to-Player" style="stroke:#181818;stroke-width:1.0;"/><polygon fill="#181818" points="456.14,556.25,459.9851,547.1828,456.0543,551.2507,451.9863,547.3199,456.14,556.25" style="stroke:#181818;stroke-width:1.0;"/></g><!--link WorldInstance to Player--><g id="link_WorldInstance_Player"><path codeLine="103" d="M430.5,380.5 C447.67,380.5 453.5,482.81 455.48,551.11 " fill="none" id="WorldInstance-to-Player-1" style="stroke:#181818;stroke-width:1.0;"/><polygon fill="#181818" points="455.63,556.37,459.3713,547.2594,455.4872,551.372,451.3746,547.4879,455.63,556.37" style="stroke:#181818;stroke-width:1.0;"/></g><!--link WorldInstance to Player--><g id="link_WorldInstance_Player"><path codeLine="104" d="M430.5,436.5 C454.26,436.5 458.77,500.61 458.64,551.11 " fill="none" id="WorldInstance-to-Player-2" style="stroke:#181818;stroke-width:1.0;"/><polygon fill="#181818" points="458.61,556.27,462.6614,547.293,458.6386,551.2701,454.6615,547.2473,458.61,556.27" style="stroke:#181818;stroke-width:1.0;"/></g><!--link GamelogJoinLeave to Player--><g id="link_GamelogJoinLeave_Player"><path codeLine="124" d="M643.5,97 C602.61,97 629.47,150.97 644.5,189 C657.8,222.64 686.39,215.29 699.5,249 C735.43,341.37 749.23,386.27 699.5,472 C666.48,528.93 600.4,564.52 545.48,585.43 " fill="none" id="GamelogJoinLeave-to-Player" style="stroke:#181818;stroke-width:1.0;"/><polygon fill="#181818" points="540.54,587.28,550.3715,587.8652,545.2216,585.5244,547.5625,580.3746,540.54,587.28" style="stroke:#181818;stroke-width:1.0;"/></g><!--link GamelogJoinLeave to WorldInstance--><g id="link_GamelogJoinLeave_WorldInstance"><path codeLine="125" d="M643.5,134 C616.65,134 638.18,170.73 618.5,189 C561.93,241.53 521.54,209.02 455.5,249 C450.91,251.78 446.35,254.74 441.82,257.84 " fill="none" id="GamelogJoinLeave-to-WorldInstance" style="stroke:#181818;stroke-width:1.0;"/><polygon fill="#181818" points="437.67,260.74,447.3409,258.8761,441.7722,257.8813,442.767,252.3126,437.67,260.74" style="stroke:#181818;stroke-width:1.0;"/></g><!--link GamelogJoinLeave to JoinLeaveEvent--><g id="link_GamelogJoinLeave_JoinLeaveEvent"><path codeLine="126" d="M858.5,153 C877.73,153 866.56,178.24 882.5,189 C991.23,262.39 1059.21,181.18 1171.5,249 C1194.14,262.67 1213.68,284.07 1228.78,304.41 " fill="none" id="GamelogJoinLeave-to-JoinLeaveEvent" style="stroke:#181818;stroke-width:1.0;"/><polygon fill="#181818" points="1231.75,308.46,1229.6874,298.8296,1228.8074,304.4176,1223.2194,303.5376,1231.75,308.46" style="stroke:#181818;stroke-width:1.0;"/></g><!--link GamelogLocation to WorldInstance--><g id="link_GamelogLocation_WorldInstance"><path codeLine="145" d="M427.5,125 C455.87,125 431.56,184.9 400.56,244.15 " fill="none" id="GamelogLocation-to-WorldInstance" style="stroke:#181818;stroke-width:1.0;"/><polygon fill="#181818" points="398.13,248.77,405.859,242.6656,400.457,244.3445,398.7781,238.9425,398.13,248.77" style="stroke:#181818;stroke-width:1.0;"/></g><!--link UserFriendLogCurrent to Player--><g id="link_UserFriendLogCurrent_Player"><path codeLine="160" d="M480.5,372.5 C462.57,372.5 457.9,480.62 456.77,551.26 " fill="none" id="UserFriendLogCurrent-to-Player" style="stroke:#181818;stroke-width:1.0;"/><polygon fill="#181818" points="456.69,556.28,460.8182,547.3381,456.7614,551.2805,452.819,547.2238,456.69,556.28" style="stroke:#181818;stroke-width:1.0;"/></g><!--SRC=[nLTDRvmm4BttLunoN2dz0HmgjKbQRHfLLRAR796pp89RiAanYr2L_rv_WB4D96bww1vMU6Ri-NZFRra006Hj1MSxqJOIRl24PNC6f05ZC6lu_Gw6pvxzPBnZRdr-xXxlQKCb5sxz3RjzWzCwM7pLfmGMamwpm7P_Ur4GkKDIJQUsj27iWCRmPBxD5-CIeSIZ17xqIW-Fj-q1RO0uHuMaQGNgRGNl9dDxA40M2AqgIErm3cdhXCTUkvsvwPMrUc_Mo39JJrITe7aHbPSayK27TLIlStDMzhga38vSG8QFRPvJblzztXYjdMermoDfIsbRLCFqvvVJ4pAG78YPo5h2mQm9zS15cS4jvfGpooXZiORNKMf_zu2Dz9RUunNnF5UjuFK4nZMf2Ljao2ENabTw65unRfzVSiWIOMrTWOegFkwTsK9P8nqhzKTjBhZcoUkGyOfPfqHKtLivuK5qpIbJ72CdX2i5hxGmQQin6jlhaD9xtC9iNXo_vBLkDymG7EAN4q8W-zhSKZGkgOJ1kGfIryZK01G-B83dUqbwTNz_g9ELs-ExaGfzlms04su3aC_2DifCsCOwS0jz_IDuaieUpcnp5hIXqGci3TJ6bD8iWJifrA5Bm6MqqN4f8nNEuemGf4O8abXKFMXjxYJnmbMA3_6EUGEMqTjXvfv8ZAQW7uFKKZiR1ziBpJAkOcO11SqoPCdGXZFNWfw8n9dzG5Wgy5Uhb2cbx4Hro2VEIoGiaejaKMIEWYfSczcvkU1j7HJdZJYOIf8CSgI77AU88crp9jBB5mKDhRuGDHGUHyrX_QAuv9F-XkSMM-qeUUxkJG2lXcxB9ERUJ3piDd0Gg8hCKY8Jk5HFErhXxEAcwi8fBiR33TtBR2_vWSW9jcsiwHihFScQV4cg3_LRU5hJ-tWGwkxupNoiUCjCe3Ol2LfJ6nq9nIwyJciICiyT3YV6Tnu_3chYNp2h-GOhsJfwONGh_BaPayJiSOwGF6_Wp2WfYsnmUZFoVuKLSzJTPPuV_18Xnjx-0n-cr67VAo3FKTDlxd3H2g4h-MoqOi9EEwrDcSOW7q3zKcdKExgu0vghWriwE4c6quB_7h2zD1DKl_bHZgxW-bNZO7UNVIpLq55P19FTF_CA_6n5_kNw0m00]--></g></svg>