<?xml version="1.0" encoding="us-ascii" standalone="no"?><svg xmlns="http://www.w3.org/2000/svg" xmlns:xlink="http://www.w3.org/1999/xlink" contentStyleType="text/css" height="812px" preserveAspectRatio="none" style="width:1267px;height:812px;background:#777777;" version="1.1" viewBox="0 0 1267 812" width="1267px" zoomAndPan="magnify"><defs/><g><rect fill="#777777" height="812" style="stroke:none;stroke-width:1.0;" width="1267" x="0" y="0"/><!--class TrustLevel--><g id="elem_TrustLevel"><rect codeLine="4" fill="#2E2E2E" height="159.0469" id="TrustLevel" rx="2.5" ry="2.5" style="stroke:#1B1B1B;stroke-width:0.5;" width="95" x="378" y="646"/><ellipse cx="390" cy="659" fill="#EB937F" rx="8" ry="8" style="stroke:#181818;stroke-width:1.0;"/><path d="M392.8125,663 L387.0156,663 L387.0156,655 L392.8125,655 L392.8125,656.5469 L389.0781,656.5469 L389.0781,657.9219 L392.5313,657.9219 L392.5313,659.4688 L389.0781,659.4688 L389.0781,661.4531 L392.8125,661.4531 L392.8125,663 Z " fill="#000000"/><text fill="#AAAAAA" font-family="Verdana" font-size="11" lengthAdjust="spacing" textLength="69" x="401" y="663.3748">Trust Levels</text><line style="stroke:#1B1B1B;stroke-width:0.5;" x1="379" x2="472" y1="672" y2="672"/><text fill="#AAAAAA" font-family="sans-serif" font-size="11" lengthAdjust="spacing" textLength="46" x="384" y="687.8701">Unknown</text><line style="stroke:#1B1B1B;stroke-width:1.0;" x1="379" x2="472" y1="694.6309" y2="694.6309"/><text fill="#AAAAAA" font-family="sans-serif" font-size="11" lengthAdjust="spacing" textLength="31" x="384" y="710.501">Visitor</text><text fill="#AAAAAA" font-family="sans-serif" font-size="11" lengthAdjust="spacing" textLength="46" x="384" y="725.1318">NewUser</text><text fill="#AAAAAA" font-family="sans-serif" font-size="11" lengthAdjust="spacing" textLength="23" x="384" y="739.7627">User</text><text fill="#AAAAAA" font-family="sans-serif" font-size="11" lengthAdjust="spacing" textLength="58" x="384" y="754.3936">KnownUser</text><text fill="#AAAAAA" font-family="sans-serif" font-size="11" lengthAdjust="spacing" textLength="60" x="384" y="769.0244">TrustedUser</text><text fill="#AAAAAA" font-family="sans-serif" font-size="11" lengthAdjust="spacing" textLength="63" x="384" y="783.6553">VRChatTeam</text><text fill="#AAAAAA" font-family="sans-serif" font-size="11" lengthAdjust="spacing" textLength="45" x="384" y="798.2861">Nuisance</text></g><g id="elem_GMN3"><path d="M226.5,687 L226.5,763.8433 A0,0 0 0 0 226.5,763.8433 L342.5,763.8433 A0,0 0 0 0 342.5,763.8433 L342.5,729.5 L377.9,725.5 L342.5,721.5 L342.5,697 L332.5,687 L226.5,687 A0,0 0 0 0 226.5,687 " fill="#1A66C2" style="stroke:#002642;stroke-width:0.5;"/><path d="M332.5,687 L332.5,697 L342.5,697 L332.5,687 " fill="#1A66C2" style="stroke:#002642;stroke-width:0.5;"/><text fill="#FFFFFF" font-family="Verdana" font-size="11" lengthAdjust="spacing" textLength="87" x="232.5" y="703.0591">Trust Level is a</text><text fill="#FFFFFF" font-family="Verdana" font-size="11" lengthAdjust="spacing" textLength="92" x="232.5" y="716.4277">measure of how</text><text fill="#FFFFFF" font-family="Verdana" font-size="11" lengthAdjust="spacing" textLength="95" x="232.5" y="729.7964">much the user is</text><text fill="#FFFFFF" font-family="Verdana" font-size="11" lengthAdjust="spacing" textLength="80" x="232.5" y="743.165">trusted by the</text><text fill="#FFFFFF" font-family="Verdana" font-size="11" lengthAdjust="spacing" textLength="45" x="232.5" y="756.5337">system.</text></g><path d="M508,679 L508,693.3687 L430,683.3154 L508,701.3687 L508,715.7373 A0,0 0 0 0 508,715.7373 L671,715.7373 A0,0 0 0 0 671,715.7373 L671,689 L661,679 L508,679 A0,0 0 0 0 508,679 " fill="#1A66C2" style="stroke:#002642;stroke-width:0.5;"/><path d="M661,679 L661,689 L671,689 L661,679 " fill="#1A66C2" style="stroke:#002642;stroke-width:0.5;"/><text fill="#FFFFFF" font-family="Verdana" font-size="11" lengthAdjust="spacing" textLength="132" x="514" y="695.0591">Unknown Trust Level is</text><text fill="#FFFFFF" font-family="Verdana" font-size="11" lengthAdjust="spacing" textLength="142" x="514" y="708.4277">only used for debugging.</text><path d="M508,725.7373 L508,740.106 L415,705.9463 L508,748.106 L508,762.4746 A0,0 0 0 0 508,762.4746 L654,762.4746 A0,0 0 0 0 654,762.4746 L654,735.7373 L644,725.7373 L508,725.7373 A0,0 0 0 0 508,725.7373 " fill="#1A66C2" style="stroke:#002642;stroke-width:0.5;"/><path d="M644,725.7373 L644,735.7373 L654,735.7373 L644,725.7373 " fill="#1A66C2" style="stroke:#002642;stroke-width:0.5;"/><text fill="#FFFFFF" font-family="Verdana" font-size="11" lengthAdjust="spacing" textLength="125" x="514" y="741.7964">The default trust level</text><text fill="#FFFFFF" font-family="Verdana" font-size="11" lengthAdjust="spacing" textLength="90" x="514" y="755.165">given to a user.</text><!--class WorldRegion--><g id="elem_WorldRegion"><rect codeLine="35" fill="#2E2E2E" height="129.7852" id="WorldRegion" rx="2.5" ry="2.5" style="stroke:#1B1B1B;stroke-width:0.5;" width="108" x="12.5" y="456"/><ellipse cx="24.5" cy="469" fill="#EB937F" rx="8" ry="8" style="stroke:#181818;stroke-width:1.0;"/><path d="M27.3125,473 L21.5156,473 L21.5156,465 L27.3125,465 L27.3125,466.5469 L23.5781,466.5469 L23.5781,467.9219 L27.0313,467.9219 L27.0313,469.4688 L23.5781,469.4688 L23.5781,471.4531 L27.3125,471.4531 L27.3125,473 Z " fill="#000000"/><text fill="#AAAAAA" font-family="Verdana" font-size="11" lengthAdjust="spacing" textLength="82" x="35.5" y="473.3748">World Regions</text><line style="stroke:#1B1B1B;stroke-width:0.5;" x1="13.5" x2="119.5" y1="482" y2="482"/><text fill="#AAAAAA" font-family="sans-serif" font-size="11" lengthAdjust="spacing" textLength="46" x="18.5" y="497.8701">Unknown</text><line style="stroke:#1B1B1B;stroke-width:1.0;" x1="13.5" x2="119.5" y1="504.6309" y2="504.6309"/><text fill="#AAAAAA" font-family="sans-serif" font-size="11" lengthAdjust="spacing" textLength="39" x="18.5" y="520.501">USWest</text><text fill="#AAAAAA" font-family="sans-serif" font-size="11" lengthAdjust="spacing" textLength="14" x="18.5" y="535.1318">US</text><text fill="#AAAAAA" font-family="sans-serif" font-size="11" lengthAdjust="spacing" textLength="35" x="18.5" y="549.7627">USEast</text><text fill="#AAAAAA" font-family="sans-serif" font-size="11" lengthAdjust="spacing" textLength="34" x="18.5" y="564.3936">Europe</text><text fill="#AAAAAA" font-family="sans-serif" font-size="11" lengthAdjust="spacing" textLength="29" x="18.5" y="579.0244">Japan</text></g><g id="elem_GMN9"><path d="M6,694 L6,757.4746 A0,0 0 0 0 6,757.4746 L127,757.4746 A0,0 0 0 0 127,757.4746 L127,704 L117,694 L70.5,694 L66.5,586.07 L62.5,694 L6,694 A0,0 0 0 0 6,694 " fill="#1A66C2" style="stroke:#002642;stroke-width:0.5;"/><path d="M117,694 L117,704 L127,704 L117,694 " fill="#1A66C2" style="stroke:#002642;stroke-width:0.5;"/><text fill="#FFFFFF" font-family="Verdana" font-size="11" lengthAdjust="spacing" textLength="100" x="12" y="710.0591">World Region is a</text><text fill="#FFFFFF" font-family="Verdana" font-size="11" lengthAdjust="spacing" textLength="97" x="12" y="723.4277">region where the</text><text fill="#FFFFFF" font-family="Verdana" font-size="11" lengthAdjust="spacing" textLength="82" x="12" y="736.7964">world instance</text><text fill="#FFFFFF" font-family="Verdana" font-size="11" lengthAdjust="spacing" textLength="55" x="12" y="750.165">is hosted.</text></g><path d="M155.5,497.5 L155.5,511.8687 L64.5,493.3154 L155.5,519.8687 L155.5,534.2373 A0,0 0 0 0 155.5,534.2373 L321.5,534.2373 A0,0 0 0 0 321.5,534.2373 L321.5,507.5 L311.5,497.5 L155.5,497.5 A0,0 0 0 0 155.5,497.5 " fill="#1A66C2" style="stroke:#002642;stroke-width:0.5;"/><path d="M311.5,497.5 L311.5,507.5 L321.5,507.5 L311.5,497.5 " fill="#1A66C2" style="stroke:#002642;stroke-width:0.5;"/><text fill="#FFFFFF" font-family="Verdana" font-size="11" lengthAdjust="spacing" textLength="145" x="161.5" y="513.5591">Unknown World Region is</text><text fill="#FFFFFF" font-family="Verdana" font-size="11" lengthAdjust="spacing" textLength="142" x="161.5" y="526.9277">only used for debugging.</text><!--class JoinLeaveEvent--><g id="elem_JoinLeaveEvent"><rect codeLine="58" fill="#2E2E2E" height="85.8926" id="JoinLeaveEvent" rx="2.5" ry="2.5" style="stroke:#1B1B1B;stroke-width:0.5;" width="128" x="1125.5" y="262.5"/><ellipse cx="1137.5" cy="275.5" fill="#EB937F" rx="8" ry="8" style="stroke:#181818;stroke-width:1.0;"/><path d="M1140.3125,279.5 L1134.5156,279.5 L1134.5156,271.5 L1140.3125,271.5 L1140.3125,273.0469 L1136.5781,273.0469 L1136.5781,274.4219 L1140.0313,274.4219 L1140.0313,275.9688 L1136.5781,275.9688 L1136.5781,277.9531 L1140.3125,277.9531 L1140.3125,279.5 Z " fill="#000000"/><text fill="#AAAAAA" font-family="Verdana" font-size="11" lengthAdjust="spacing" textLength="102" x="1148.5" y="279.8748">Join Leave Events</text><line style="stroke:#1B1B1B;stroke-width:0.5;" x1="1126.5" x2="1252.5" y1="288.5" y2="288.5"/><text fill="#AAAAAA" font-family="sans-serif" font-size="11" lengthAdjust="spacing" textLength="46" x="1131.5" y="304.3701">Unknown</text><line style="stroke:#1B1B1B;stroke-width:1.0;" x1="1126.5" x2="1252.5" y1="311.1309" y2="311.1309"/><text fill="#AAAAAA" font-family="sans-serif" font-size="11" lengthAdjust="spacing" textLength="19" x="1131.5" y="327.001">Join</text><text fill="#AAAAAA" font-family="sans-serif" font-size="11" lengthAdjust="spacing" textLength="30" x="1131.5" y="341.6318">Leave</text></g><g id="elem_GMN15"><path d="M1119,34 L1119,124.2119 A0,0 0 0 0 1119,124.2119 L1185.5,124.2119 L1189.5,262.41 L1193.5,124.2119 L1260,124.2119 A0,0 0 0 0 1260,124.2119 L1260,44 L1250,34 L1119,34 A0,0 0 0 0 1119,34 " fill="#1A66C2" style="stroke:#002642;stroke-width:0.5;"/><path d="M1250,34 L1250,44 L1260,44 L1250,34 " fill="#1A66C2" style="stroke:#002642;stroke-width:0.5;"/><text fill="#FFFFFF" font-family="Verdana" font-size="11" lengthAdjust="spacing" textLength="120" x="1125" y="50.0591">Join Leave Event is a</text><text fill="#FFFFFF" font-family="Verdana" font-size="11" lengthAdjust="spacing" textLength="102" x="1125" y="63.4277">type of event that</text><text fill="#FFFFFF" font-family="Verdana" font-size="11" lengthAdjust="spacing" textLength="112" x="1125" y="76.7964">happened when the</text><text fill="#FFFFFF" font-family="Verdana" font-size="11" lengthAdjust="spacing" textLength="91" x="1125" y="90.165">Player joined or</text><text fill="#FFFFFF" font-family="Verdana" font-size="11" lengthAdjust="spacing" textLength="75" x="1125" y="103.5337">left the world</text><text fill="#FFFFFF" font-family="Verdana" font-size="11" lengthAdjust="spacing" textLength="51" x="1125" y="116.9023">instance.</text></g><path d="M904.5,282 L904.5,318.7373 A0,0 0 0 0 904.5,318.7373 L1090.5,318.7373 A0,0 0 0 0 1090.5,318.7373 L1090.5,304.3687 L1129.5,299.8154 L1090.5,296.3687 L1090.5,292 L1080.5,282 L904.5,282 A0,0 0 0 0 904.5,282 " fill="#1A66C2" style="stroke:#002642;stroke-width:0.5;"/><path d="M1080.5,282 L1080.5,292 L1090.5,292 L1080.5,282 " fill="#1A66C2" style="stroke:#002642;stroke-width:0.5;"/><text fill="#FFFFFF" font-family="Verdana" font-size="11" lengthAdjust="spacing" textLength="165" x="910.5" y="298.0591">Unknown Join Leave Event is</text><text fill="#FFFFFF" font-family="Verdana" font-size="11" lengthAdjust="spacing" textLength="142" x="910.5" y="311.4277">only used for debugging.</text><!--class Player--><g id="elem_Player"><rect codeLine="80" fill="#2E2E2E" height="85.8926" id="Player" rx="2.5" ry="2.5" style="stroke:#1B1B1B;stroke-width:0.5;" width="119" x="365" y="478.5"/><ellipse cx="400" cy="491.5" fill="#ADD1B2" rx="8" ry="8" style="stroke:#181818;stroke-width:1.0;"/><path d="M402.8125,495.5 L397.0156,495.5 L397.0156,487.5 L402.8125,487.5 L402.8125,489.0469 L399.0781,489.0469 L399.0781,490.4219 L402.5313,490.4219 L402.5313,491.9688 L399.0781,491.9688 L399.0781,493.9531 L402.8125,493.9531 L402.8125,495.5 Z " fill="#000000"/><text fill="#AAAAAA" font-family="Verdana" font-size="11" lengthAdjust="spacing" textLength="42" x="416" y="495.8748">Players</text><line style="stroke:#1B1B1B;stroke-width:0.5;" x1="366" x2="483" y1="504.5" y2="504.5"/><ellipse cx="376" cy="516.8154" fill="#000000" rx="3" ry="3" style="stroke:#000000;stroke-width:1.0;"/><text fill="#AAAAAA" font-family="sans-serif" font-size="11" lengthAdjust="spacing" textLength="78" x="382" y="520.3701">player_id: String</text><line style="stroke:#1B1B1B;stroke-width:1.0;" x1="366" x2="483" y1="527.1309" y2="527.1309"/><text fill="#AAAAAA" font-family="sans-serif" font-size="11" lengthAdjust="spacing" textLength="100" x="371" y="543.001">display_name: String</text><text fill="#AAAAAA" font-family="sans-serif" font-size="11" lengthAdjust="spacing" textLength="107" x="371" y="557.6318">trust_level: TrustLevel</text></g><!--class WorldInstance--><g id="elem_WorldInstance"><rect codeLine="90" fill="#2E2E2E" height="173.6777" id="WorldInstance" rx="2.5" ry="2.5" style="stroke:#1B1B1B;stroke-width:0.5;" width="149" x="244" y="219"/><ellipse cx="269.95" cy="232" fill="#ADD1B2" rx="8" ry="8" style="stroke:#181818;stroke-width:1.0;"/><path d="M272.7625,236 L266.9656,236 L266.9656,228 L272.7625,228 L272.7625,229.5469 L269.0281,229.5469 L269.0281,230.9219 L272.4813,230.9219 L272.4813,232.4688 L269.0281,232.4688 L269.0281,234.4531 L272.7625,234.4531 L272.7625,236 Z " fill="#000000"/><text fill="#AAAAAA" font-family="Verdana" font-size="11" lengthAdjust="spacing" textLength="92" x="284.05" y="236.3748">World Instances</text><line style="stroke:#1B1B1B;stroke-width:0.5;" x1="245" x2="392" y1="245" y2="245"/><ellipse cx="255" cy="257.3154" fill="#000000" rx="3" ry="3" style="stroke:#000000;stroke-width:1.0;"/><text fill="#AAAAAA" font-family="sans-serif" font-size="11" lengthAdjust="spacing" textLength="76" x="261" y="260.8701">world_id: String</text><ellipse cx="255" cy="271.9463" fill="#000000" rx="3" ry="3" style="stroke:#000000;stroke-width:1.0;"/><text fill="#AAAAAA" font-family="sans-serif" font-size="11" lengthAdjust="spacing" textLength="89" x="261" y="275.501">instance_id: String</text><line style="stroke:#1B1B1B;stroke-width:1.0;" x1="245" x2="392" y1="282.2617" y2="282.2617"/><text fill="#AAAAAA" font-family="sans-serif" font-size="11" lengthAdjust="spacing" textLength="64" x="250" y="298.1318">nonce: String</text><text fill="#AAAAAA" font-family="sans-serif" font-size="11" lengthAdjust="spacing" textLength="68" x="250" y="312.7627">hidden: Player</text><text fill="#AAAAAA" font-family="sans-serif" font-size="11" lengthAdjust="spacing" textLength="69" x="250" y="327.3936">private: Player</text><text fill="#AAAAAA" font-family="sans-serif" font-size="11" lengthAdjust="spacing" textLength="137" x="250" y="342.0244">can_request_invite: Boolean</text><text fill="#AAAAAA" font-family="sans-serif" font-size="11" lengthAdjust="spacing" textLength="97" x="250" y="356.6553">region: WorldRegion</text><text fill="#AAAAAA" font-family="sans-serif" font-size="11" lengthAdjust="spacing" textLength="70" x="250" y="371.2861">friends: Player</text><text fill="#AAAAAA" font-family="sans-serif" font-size="11" lengthAdjust="spacing" textLength="62" x="250" y="385.917">group: String</text></g><!--class GamelogJoinLeave--><g id="elem_GamelogJoinLeave"><rect codeLine="109" fill="#2E2E2E" height="144.416" id="GamelogJoinLeave" rx="2.5" ry="2.5" style="stroke:#1B1B1B;stroke-width:0.5;" width="168" x="606.5" y="7"/><ellipse cx="624.8" cy="20" fill="#ADD1B2" rx="8" ry="8" style="stroke:#181818;stroke-width:1.0;"/><path d="M627.6125,24 L621.8156,24 L621.8156,16 L627.6125,16 L627.6125,17.5469 L623.8781,17.5469 L623.8781,18.9219 L627.3313,18.9219 L627.3313,20.4688 L623.8781,20.4688 L623.8781,22.4531 L627.6125,22.4531 L627.6125,24 Z " fill="#000000"/><text fill="#AAAAAA" font-family="Verdana" font-size="11" lengthAdjust="spacing" textLength="128" x="637.2" y="24.3748">Game Join Leave Logs</text><line style="stroke:#1B1B1B;stroke-width:0.5;" x1="607.5" x2="773.5" y1="33" y2="33"/><ellipse cx="617.5" cy="45.3154" fill="#000000" rx="3" ry="3" style="stroke:#000000;stroke-width:1.0;"/><text fill="#AAAAAA" font-family="sans-serif" font-size="11" lengthAdjust="spacing" textLength="47" x="623.5" y="48.8701">id: Integer</text><line style="stroke:#1B1B1B;stroke-width:1.0;" x1="607.5" x2="773.5" y1="55.6309" y2="55.6309"/><ellipse cx="617.5" cy="67.9463" fill="#000000" rx="3" ry="3" style="stroke:#000000;stroke-width:1.0;"/><text fill="#AAAAAA" font-family="sans-serif" font-size="11" lengthAdjust="spacing" textLength="102" x="623.5" y="71.501">created_at: DateTime</text><text fill="#AAAAAA" font-family="sans-serif" font-size="11" lengthAdjust="spacing" textLength="115" x="623.5" y="86.1318">instance_owner: Player</text><text fill="#AAAAAA" font-family="sans-serif" font-size="11" lengthAdjust="spacing" textLength="145" x="623.5" y="100.7627">instance_owner_name: String</text><text fill="#AAAAAA" font-family="sans-serif" font-size="11" lengthAdjust="spacing" textLength="112" x="623.5" y="115.3936">location: WorldInstance</text><ellipse cx="617.5" cy="126.4697" fill="#000000" rx="3" ry="3" style="stroke:#000000;stroke-width:1.0;"/><text fill="#AAAAAA" font-family="sans-serif" font-size="11" lengthAdjust="spacing" textLength="109" x="623.5" y="130.0244">event: JoinLeaveEvent</text><text fill="#AAAAAA" font-family="sans-serif" font-size="11" lengthAdjust="spacing" textLength="58" x="623.5" y="144.6553">time: Integer</text></g><path d="M818,49 L818,70.053 L681.5,140.1006 L818,78.053 L818,99.106 A0,0 0 0 0 818,99.106 L949,99.106 A0,0 0 0 0 949,99.106 L949,59 L939,49 L818,49 A0,0 0 0 0 818,49 " fill="#1A66C2" style="stroke:#002642;stroke-width:0.5;"/><path d="M939,49 L939,59 L949,59 L939,49 " fill="#1A66C2" style="stroke:#002642;stroke-width:0.5;"/><text fill="#FFFFFF" font-family="Verdana" font-size="11" lengthAdjust="spacing" textLength="110" x="824" y="65.0591">Amount of time the</text><text fill="#FFFFFF" font-family="Verdana" font-size="11" lengthAdjust="spacing" textLength="107" x="824" y="78.4277">Player spent in the</text><text fill="#FFFFFF" font-family="Verdana" font-size="11" lengthAdjust="spacing" textLength="90" x="824" y="91.7964">World Instance.</text><!--class GamelogLocation--><g id="elem_GamelogLocation"><rect codeLine="131" fill="#2E2E2E" height="129.7852" id="GamelogLocation" rx="2.5" ry="2.5" style="stroke:#1B1B1B;stroke-width:0.5;" width="173" x="216" y="14.5"/><ellipse cx="242.4" cy="27.5" fill="#ADD1B2" rx="8" ry="8" style="stroke:#181818;stroke-width:1.0;"/><path d="M245.2125,31.5 L239.4156,31.5 L239.4156,23.5 L245.2125,23.5 L245.2125,25.0469 L241.4781,25.0469 L241.4781,26.4219 L244.9313,26.4219 L244.9313,27.9688 L241.4781,27.9688 L241.4781,29.9531 L245.2125,29.9531 L245.2125,31.5 Z " fill="#000000"/><text fill="#AAAAAA" font-family="Verdana" font-size="11" lengthAdjust="spacing" textLength="115" x="256.6" y="31.8748">Game Location Logs</text><line style="stroke:#1B1B1B;stroke-width:0.5;" x1="217" x2="388" y1="40.5" y2="40.5"/><ellipse cx="227" cy="52.8154" fill="#000000" rx="3" ry="3" style="stroke:#000000;stroke-width:1.0;"/><text fill="#AAAAAA" font-family="sans-serif" font-size="11" lengthAdjust="spacing" textLength="8" x="233" y="56.3701">id</text><line style="stroke:#1B1B1B;stroke-width:1.0;" x1="217" x2="388" y1="63.1309" y2="63.1309"/><ellipse cx="227" cy="75.4463" fill="#000000" rx="3" ry="3" style="stroke:#000000;stroke-width:1.0;"/><text fill="#AAAAAA" font-family="sans-serif" font-size="11" lengthAdjust="spacing" textLength="102" x="233" y="79.001">created_at: DateTime</text><ellipse cx="227" cy="90.0771" fill="#000000" rx="3" ry="3" style="stroke:#000000;stroke-width:1.0;"/><text fill="#AAAAAA" font-family="sans-serif" font-size="11" lengthAdjust="spacing" textLength="94" x="233" y="93.6318">world_name: String</text><ellipse cx="227" cy="104.708" fill="#000000" rx="3" ry="3" style="stroke:#000000;stroke-width:1.0;"/><text fill="#AAAAAA" font-family="sans-serif" font-size="11" lengthAdjust="spacing" textLength="150" x="233" y="108.2627">world_instance: WorldInstance</text><text fill="#AAAAAA" font-family="sans-serif" font-size="11" lengthAdjust="spacing" textLength="58" x="233" y="122.8936">time: Integer</text><text fill="#AAAAAA" font-family="sans-serif" font-size="11" lengthAdjust="spacing" textLength="94" x="233" y="137.5244">group_name: String</text></g><path d="M432,49 L432,70.053 L291,118.3389 L432,78.053 L432,99.106 A0,0 0 0 0 432,99.106 L563,99.106 A0,0 0 0 0 563,99.106 L563,59 L553,49 L432,49 A0,0 0 0 0 432,49 " fill="#1A66C2" style="stroke:#002642;stroke-width:0.5;"/><path d="M553,49 L553,59 L563,59 L553,49 " fill="#1A66C2" style="stroke:#002642;stroke-width:0.5;"/><text fill="#FFFFFF" font-family="Verdana" font-size="11" lengthAdjust="spacing" textLength="110" x="438" y="65.0591">Amount of time the</text><text fill="#FFFFFF" font-family="Verdana" font-size="11" lengthAdjust="spacing" textLength="107" x="438" y="78.4277">Player spent in the</text><text fill="#FFFFFF" font-family="Verdana" font-size="11" lengthAdjust="spacing" textLength="90" x="438" y="91.7964">World Instance.</text><!--class UserFriendLogCurrent--><g id="elem_UserFriendLogCurrent"><rect codeLine="150" fill="#2E2E2E" height="56.6309" id="UserFriendLogCurrent" rx="2.5" ry="2.5" style="stroke:#1B1B1B;stroke-width:0.5;" width="169" x="444" y="277.5"/><ellipse cx="456" cy="290.5" fill="#ADD1B2" rx="8" ry="8" style="stroke:#181818;stroke-width:1.0;"/><path d="M458.8125,294.5 L453.0156,294.5 L453.0156,286.5 L458.8125,286.5 L458.8125,288.0469 L455.0781,288.0469 L455.0781,289.4219 L458.5313,289.4219 L458.5313,290.9688 L455.0781,290.9688 L455.0781,292.9531 L458.8125,292.9531 L458.8125,294.5 Z " fill="#000000"/><text fill="#AAAAAA" font-family="Verdana" font-size="11" lengthAdjust="spacing" textLength="143" x="467" y="294.8748">User Current Friend Logs</text><line style="stroke:#1B1B1B;stroke-width:0.5;" x1="445" x2="612" y1="303.5" y2="303.5"/><ellipse cx="455" cy="315.8154" fill="#000000" rx="3" ry="3" style="stroke:#000000;stroke-width:1.0;"/><text fill="#AAAAAA" font-family="sans-serif" font-size="11" lengthAdjust="spacing" textLength="72" x="461" y="319.3701">user_id: Player</text><line style="stroke:#1B1B1B;stroke-width:1.0;" x1="445" x2="612" y1="326.1309" y2="326.1309"/></g><path d="M727.5,269 L727.5,296.7373 L533,314.8154 L727.5,304.7373 L727.5,332.4746 A0,0 0 0 0 727.5,332.4746 L869.5,332.4746 A0,0 0 0 0 869.5,332.4746 L869.5,279 L859.5,269 L727.5,269 A0,0 0 0 0 727.5,269 " fill="#1A66C2" style="stroke:#002642;stroke-width:0.5;"/><path d="M859.5,269 L859.5,279 L869.5,279 L859.5,269 " fill="#1A66C2" style="stroke:#002642;stroke-width:0.5;"/><text fill="#FFFFFF" font-family="Verdana" font-size="11" lengthAdjust="spacing" textLength="121" x="733.5" y="285.0591">User ID of the Player</text><text fill="#FFFFFF" font-family="Verdana" font-size="11" lengthAdjust="spacing" textLength="91" x="733.5" y="298.4277">who is currently</text><text fill="#FFFFFF" font-family="Verdana" font-size="11" lengthAdjust="spacing" textLength="88" x="733.5" y="311.7964">friends with the</text><text fill="#FFFFFF" font-family="Verdana" font-size="11" lengthAdjust="spacing" textLength="30" x="733.5" y="325.165">User.</text><!--link Player to TrustLevel--><g id="link_Player_TrustLevel"><path codeLine="87" d="M485.5,553 C530.97,553 506.21,607.38 475.89,654.89 " fill="none" id="Player-to-TrustLevel" style="stroke:#FFFFFF;stroke-width:1.0;"/><polygon fill="#FFFFFF" points="473.13,659.17,481.3745,653.7822,475.8439,654.9706,474.6555,649.44,473.13,659.17" style="stroke:#FFFFFF;stroke-width:1.0;"/></g><!--link WorldInstance to WorldRegion--><g id="link_WorldInstance_WorldRegion"><path codeLine="103" d="M243.5,351.5 C182.34,351.5 133.94,404.93 103.32,451.61 " fill="none" id="WorldInstance-to-WorldRegion" style="stroke:#FFFFFF;stroke-width:1.0;"/><polygon fill="#FFFFFF" points="100.59,455.82,108.8345,450.4322,103.3039,451.6206,102.1155,446.09,100.59,455.82" style="stroke:#FFFFFF;stroke-width:1.0;"/></g><!--link WorldInstance to Player--><g id="link_WorldInstance_Player"><path codeLine="104" d="M394.5,307.5 C410.76,307.5 418.8,406.34 422.26,469.2 " fill="none" id="WorldInstance-to-Player" style="stroke:#FFFFFF;stroke-width:1.0;"/><polygon fill="#FFFFFF" points="422.54,474.41,426.0448,465.2059,422.2682,469.4174,418.0567,465.6408,422.54,474.41" style="stroke:#FFFFFF;stroke-width:1.0;"/></g><!--link WorldInstance to Player--><g id="link_WorldInstance_Player"><path codeLine="105" d="M394.5,322.5 C409.31,322.5 417.72,410.46 421.67,468.98 " fill="none" id="WorldInstance-to-Player-1" style="stroke:#FFFFFF;stroke-width:1.0;"/><polygon fill="#FFFFFF" points="422.01,474.19,425.4095,464.9464,421.6812,469.2008,417.4268,465.4725,422.01,474.19" style="stroke:#FFFFFF;stroke-width:1.0;"/></g><!--link WorldInstance to Player--><g id="link_WorldInstance_Player"><path codeLine="106" d="M394.5,366.5 C415.87,366.5 422.31,424.55 424.09,469.26 " fill="none" id="WorldInstance-to-Player-2" style="stroke:#FFFFFF;stroke-width:1.0;"/><polygon fill="#FFFFFF" points="424.27,474.36,427.9332,465.2177,424.0844,469.3634,419.9387,465.5147,424.27,474.36" style="stroke:#FFFFFF;stroke-width:1.0;"/></g><!--link GamelogJoinLeave to Player--><g id="link_GamelogJoinLeave_Player"><path codeLine="126" d="M605.5,81 C572.61,81 598.31,123.14 606.5,155 C614.03,184.27 631.17,185.68 638.5,215 C658.01,293.04 678.67,326.3 638.5,396 C608.28,448.44 546.46,480.72 497,499.15 " fill="none" id="GamelogJoinLeave-to-Player" style="stroke:#FFFFFF;stroke-width:1.0;"/><polygon fill="#FFFFFF" points="492.26,500.89,502.0864,501.5543,496.9556,499.1721,499.3378,494.0413,492.26,500.89" style="stroke:#FFFFFF;stroke-width:1.0;"/></g><!--link GamelogJoinLeave to WorldInstance--><g id="link_GamelogJoinLeave_WorldInstance"><path codeLine="127" d="M605.5,110 C582.62,110 597.86,140.1 580.5,155 C522.23,205 484.26,175.37 418.5,215 C414.16,217.62 409.84,220.43 405.55,223.4 " fill="none" id="GamelogJoinLeave-to-WorldInstance" style="stroke:#FFFFFF;stroke-width:1.0;"/><polygon fill="#FFFFFF" points="401.29,226.41,410.9489,224.4851,405.374,223.5255,406.3337,217.9506,401.29,226.41" style="stroke:#FFFFFF;stroke-width:1.0;"/></g><!--link GamelogJoinLeave to JoinLeaveEvent--><g id="link_GamelogJoinLeave_JoinLeaveEvent"><path codeLine="128" d="M775.5,125 C792.86,125 785.56,146.16 800.5,155 C920.53,226.01 987.05,146.46 1108.5,215 C1127.34,225.63 1144.16,242.25 1157.53,258.29 " fill="none" id="GamelogJoinLeave-to-JoinLeaveEvent" style="stroke:#FFFFFF;stroke-width:1.0;"/><polygon fill="#FFFFFF" points="1160.85,262.35,1158.262,252.8473,1157.69,258.4751,1152.0622,257.9032,1160.85,262.35" style="stroke:#FFFFFF;stroke-width:1.0;"/></g><!--link GamelogLocation to WorldInstance--><g id="link_GamelogLocation_WorldInstance"><path codeLine="147" d="M390.5,103 C415.29,103 394.66,157.77 369.23,210.21 " fill="none" id="GamelogLocation-to-WorldInstance" style="stroke:#FFFFFF;stroke-width:1.0;"/><polygon fill="#FFFFFF" points="366.92,214.95,374.4744,208.6309,369.1217,210.4608,367.2917,205.1082,366.92,214.95" style="stroke:#FFFFFF;stroke-width:1.0;"/></g><!--link UserFriendLogCurrent to Player--><g id="link_UserFriendLogCurrent_Player"><path codeLine="162" d="M443.5,314.5 C427.99,314.5 424.77,408.49 424.31,469.34 " fill="none" id="UserFriendLogCurrent-to-Player" style="stroke:#FFFFFF;stroke-width:1.0;"/><polygon fill="#FFFFFF" points="424.28,474.39,428.3314,465.413,424.3086,469.3901,420.3315,465.3673,424.28,474.39" style="stroke:#FFFFFF;stroke-width:1.0;"/></g><!--SRC=[nLVBRjim4BpdAxOv6aW_G8S2RP8MJeEYIEpaQD3MMc8ZaIf9sJ2A_7lva2YIafAqFTG7GznTSXyp7Ci00EzKYJM2m3mNAEL5JiJJjchnxEnCUm5PMyFvIhHImIqUi9BdG2HOWrt3BnjdFclsnFYH-VN5XNzye98gBlpw6nxN4eTrjFXgJeaiDXtcaUtXxh8aQeMa7avjgIHiXzRmRB_j5-CAeSAz0huFIe-FT-q1bK2yeqOYMu5cMycFWxdTbQ3d1gqkIE_m3kNgXEt9kBrPdhIrVjyDDBVr9DK9MfH9ULcM3hHR9_LwDsVLoPIKmvuBo77R5WLbnP_dJT5QwLPpt9EsKgv5FSnmVWKz80F5WTY9p2KC2FN8HPN37HQKCySeQt66jr5gVV-8KWNBuF6Q19xhLl1c0EE6D8HDCcJBbUAr6KPGZDyNbXopH3ZRiKHDbH3tezr2cLIUbUQZDvVSyEHjo0J5p5CYgUvlEH50TCCfqnmZ1uHh3QzoC1chDLhRsv0oU_p2RfuSl-ADQJVE41qIbXD3e4wDlQLeNKeBWtULf6cGwG5eV5W4p_UAdFJz_Q5Frkw0xrOgpFss00wuTK2-25ilCt4Ryy1DzFMFu2cgJd3kcdEWTOqEO2sWiQODpJEuLq8VEWLSJgM9sp1IuoZE2i762a6MYce0hSkTPK6uJl4XtJ5km35wsSqy48dU5FLZaPfgP-5XUwLPndNCAA2aUOuiwzhmvaRG0r4uiky8smZysMfbsb1se2Ra4-SL4fR8HJOfCdj1DQvoT6uXUDj4nGKZZgQIPPqScI6dAP98rvoD3F8bGLshhqHrXQTHOrY_Q2w5fB_bXSFME2fU-7iJmMkWMpA5HJ2J0Bi5x0Jg8lCDKHbSwQSLhN5qSJVwmcakfiEDtTDih_YEg06sPQhf2oSzsPnyAMeE3LjudjFxT13wxeJDVAnvosoWCKy9ccoiZiHY5r-dEGaPvuw7a-8xZky7DV0lcjLuWvDi4pqnkXd-tFP9KlPuHqoUl-1CBocJRF1wq_D_XXLZrFrb7X_y6Y7wtlu37uRKSTyp88zHCs_kSDaAOIhvRBLYmCuudKsR-g0GGFDIQTKxkRWTchE3cpeuoxhJelyUiBoo4zI_-KcEOydDgyRExQvEgLJ3aQeockpwXLVW5oiABzTl]--></g></svg>